# xmcd
# 
# Track frame offsets:
#     150
#     22440
#     49545
#     67575
# 
# Disc length: 1216
# 
# Revision: 1
# Processed by: cddbd v1.5.2PL0 Copyright (c) Steve Scherf et al.
# Submitted via: BonkEnc v1.0.8
# 
DISCID=2c04be04
DTITLE=佐藤 竹善 - 風光る
DYEAR=2005
DGENRE=JPop
TTITLE0=風光る
TTITLE1=春になれ (ROUGH DRAWING VERSION)
TTITLE2=五番街のマリーへ -on T-FM「CATCH THE POP」1989-
TTITLE3=「上を向いて歩こう」 -on T-FM「CATCH THE POP」1989-
EXTD=YEAR: 2005
EXTT0=
EXTT1=
EXTT2=
EXTT3=
PLAYORDER=
